<svg id="Слой_1" data-name="Слой 1" xmlns="http://www.w3.org/2000/svg" xmlns:xlink="http://www.w3.org/1999/xlink" viewBox="0 0 336 48"><defs><style>.cls-1{fill:#f4faf8;}.cls-2{fill:url(#Безымянный_градиент_2);}</style><linearGradient id="Безымянный_градиент_2" x1="-127.14" y1="413.28" x2="-128.15" y2="412.26" gradientTransform="matrix(48, 0, 0, -48, 6439, 19837)" gradientUnits="userSpaceOnUse"><stop offset="0" stop-color="#8a2387"/><stop offset="0.64" stop-color="#e94057"/><stop offset="1" stop-color="#f27121"/></linearGradient></defs><title>all1</title><path d="M0,0V48H48V0ZM6.4,6.4H40.1L6.4,40.2ZM41,38.8H25.6V32.4H41Z"/><path d="M24,13.1H19.6V8.6H13.3v4.5H9v6.4h4.4V24h6.3V19.5H24Z"/><path d="M56.4,8.4h31v31h-31Z"/><path d="M83.9,0V5.2h6.9v6.7H96V0ZM53.2,5.2h6.7V0H48V11.8h5.2ZM90.8,42.8H83.9V48H96V35.9H90.8ZM53.2,35.9H48V48H59.8V42.8H53.1V35.9Z"/><path d="M96,0V48h48V0Zm24.1,16.8a7.1,7.1,0,1,1-7.1,7.1,7.13,7.13,0,0,1,7.1-7.1ZM102.4,5.5h7.3v4.7h-7.3Zm35.2,36.1H102.4V24.7h4.2a13.53,13.53,0,0,0,27,0h4Z"/><path d="M168,48c13.2,0,24-9.8,24-21.8S181.2,4.5,168,4.5a24.37,24.37,0,0,0-2.7.1V1.1a1,1,0,0,0-.8-1,1.24,1.24,0,0,0-1.4.3l-8.5,7.7a1,1,0,0,0,0,1.6l8.5,7.7a1.4,1.4,0,0,0,1.4.2,1.15,1.15,0,0,0,.8-1V12.7a24.52,24.52,0,0,1,2.7-.2c8.4,0,15.2,6.2,15.2,13.8S176.4,40.1,168,40.1s-15.2-6.2-15.2-13.8a1.2,1.2,0,0,0-1.2-1.1h-6.3a1.13,1.13,0,0,0-1.2,1.1C144,38.2,154.8,48,168,48Z"/><path d="M192,35.5l19.1-11.8L192,11.9Z"/><path d="M220.9,23.7,240,35.5V11.9ZM236,28.1l-7.2-4.4,7.2-4.4Z"/><path d="M213.4,13.7h5.2v5.2h-5.2Zm0-8.1h5.2v5.2h-5.2Zm0,16.1h5.2v5.2h-5.2Zm0,7.5h5.2v5.2h-5.2Zm0,8h5.2v5.2h-5.2Z"/><path d="M240,15.4l24,24.1,24-24.2-6.8-6.8L264,25.8,246.8,8.5Z"/><rect class="cls-1" x="288" width="48" height="48"/><path class="cls-2" d="M288,0V48h48V0Zm24.11,16.78A7.11,7.11,0,1,1,305,23.89a7.13,7.13,0,0,1,7.11-7.11ZM294.4,5.55h7.25v4.69H294.4ZM329.6,41.6H294.4V24.75h4.23a13.51,13.51,0,0,0,27,0h4Z"/></svg>