<svg data-name="Слой 1" xmlns="http://www.w3.org/2000/svg" xmlns:xlink="http://www.w3.org/1999/xlink" viewBox="0 0 336 48"><defs><linearGradient id="a" x1="-127.14" y1="413.28" x2="-128.15" y2="412.26" gradientTransform="matrix(48 0 0 -48 6439 19837)" gradientUnits="userSpaceOnUse"><stop offset="0" stop-color="#8a2387"/><stop offset=".64" stop-color="#e94057"/><stop offset="1" stop-color="#f27121"/></linearGradient></defs><title>all1</title><path d="M0 0v48h48V0zm6.4 6.4h33.7L6.4 40.2zM41 38.8H25.6v-6.4H41z"/><path d="M24 13.1h-4.4V8.6h-6.3v4.5H9v6.4h4.4V24h6.3v-4.5H24z"/><path d="M56.4 8.4h31v31h-31z"/><path d="M83.9 0v5.2h6.9v6.7H96V0zM53.2 5.2h6.7V0H48v11.8h5.2zm37.6 37.6h-6.9V48H96V35.9h-5.2zm-37.6-6.9H48V48h11.8v-5.2h-6.7v-6.9z"/><path d="M96 0v48h48V0zm24.1 16.8a7.1 7.1 0 1 1-7.1 7.1 7.13 7.13 0 0 1 7.1-7.1zM102.4 5.5h7.3v4.7h-7.3zm35.2 36.1h-35.2V24.7h4.2a13.53 13.53 0 0 0 27 0h4z"/><path d="M168 48c13.2 0 24-9.8 24-21.8S181.2 4.5 168 4.5a24.37 24.37 0 0 0-2.7.1V1.1a1 1 0 0 0-.8-1 1.24 1.24 0 0 0-1.4.3l-8.5 7.7a1 1 0 0 0 0 1.6l8.5 7.7a1.4 1.4 0 0 0 1.4.2 1.15 1.15 0 0 0 .8-1v-3.9a24.52 24.52 0 0 1 2.7-.2c8.4 0 15.2 6.2 15.2 13.8s-6.8 13.8-15.2 13.8-15.2-6.2-15.2-13.8a1.2 1.2 0 0 0-1.2-1.1h-6.3a1.13 1.13 0 0 0-1.2 1.1C144 38.2 154.8 48 168 48z"/><path d="M192 35.5l19.1-11.8L192 11.9z"/><path d="M220.9 23.7L240 35.5V11.9zm15.1 4.4l-7.2-4.4 7.2-4.4z"/><path d="M213.4 13.7h5.2v5.2h-5.2zm0-8.1h5.2v5.2h-5.2zm0 16.1h5.2v5.2h-5.2zm0 7.5h5.2v5.2h-5.2zm0 8h5.2v5.2h-5.2z"/><path d="M240 15.4l24 24.1 24-24.2-6.8-6.8L264 25.8 246.8 8.5z"/><rect x="288" width="48" height="48" fill="#f4faf8"/><path d="M288 0v48h48V0zm24.11 16.78a7.11 7.11 0 1 1-7.11 7.11 7.13 7.13 0 0 1 7.11-7.11zM294.4 5.55h7.25v4.69h-7.25zm35.2 36.05h-35.2V24.75h4.23a13.51 13.51 0 0 0 27 0h4z" fill="url(#a)"/></svg>