<?xml version="1.0" standalone="no"?><svg xmlns="http://www.w3.org/2000/svg" xmlns:xlink="http://www.w3.org/1999/xlink" style="isolation:isolate" viewBox="0 0 305 100" width="305" height="100"><defs><clipPath id="_clipPath_ksfXupyzzlPcLx47EKPJWeJyW8QCXK10"><rect width="305" height="100"/></clipPath></defs><g clip-path="url(#_clipPath_ksfXupyzzlPcLx47EKPJWeJyW8QCXK10)"><path d=" M 32.463 1.169 L 8.534 25.097 L 32.464 49.026 L 39.251 42.238 L 22.111 25.098 L 39.25 7.957 L 32.463 1.169 Z " fill-rule="evenodd" fill="rgb(0,0,0)"/><g><path d=" M 59.395 9.395 L 90.391 9.395 L 90.391 40.391 L 59.395 40.391 L 59.395 9.395 Z " fill="rgb(0,0,0)"/><path d=" M 86.946 1 L 86.946 6.166 L 93.834 6.166 L 93.834 12.839 L 99 12.839 L 99 1 L 86.946 1 Z  M 56.166 6.166 L 62.839 6.166 L 62.839 1 L 51 1 L 51 12.839 L 56.166 12.839 L 56.166 6.166 Z  M 93.834 43.834 L 86.946 43.834 L 86.946 49 L 99 49 L 99 36.946 L 93.834 36.946 L 93.834 43.834 Z  M 56.166 36.946 L 51 36.946 L 51 49 L 62.839 49 L 62.839 43.834 L 56.166 43.834 L 56.166 36.946 Z " fill="rgb(0,0,0)"/><path d=" M 59.395 59.395 L 90.391 59.395 L 90.391 90.391 L 59.395 90.391 L 59.395 59.395 Z " fill="rgb(68,68,68)"/><path d=" M 86.946 51 L 86.946 56.166 L 93.834 56.166 L 93.834 62.839 L 99 62.839 L 99 51 L 86.946 51 Z  M 56.166 56.166 L 62.839 56.166 L 62.839 51 L 51 51 L 51 62.839 L 56.166 62.839 L 56.166 56.166 Z  M 93.834 93.834 L 86.946 93.834 L 86.946 99 L 99 99 L 99 86.946 L 93.834 86.946 L 93.834 93.834 Z  M 56.166 86.946 L 51 86.946 L 51 99 L 62.839 99 L 62.839 93.834 L 56.166 93.834 L 56.166 86.946 Z " fill="rgb(68,68,68)"/></g><g><path d=" M 104.143 35.5 L 123.227 23.712 L 104.143 11.925 L 104.143 35.5 Z " fill="rgb(0,0,0)"/><path d=" M 133.059 23.712 L 152.143 35.5 L 152.143 11.925 L 133.059 23.712 Z  M 148.117 28.137 L 140.954 23.712 L 148.117 19.288 L 148.117 28.137 Z " fill="rgb(0,0,0)"/><path d=" M 125.541 13.65 L 130.746 13.65 L 130.746 18.825 L 125.541 18.825 L 125.541 13.65 Z  M 125.541 5.6 L 130.746 5.6 L 130.746 10.775 L 125.541 10.775 L 125.541 5.6 Z  M 125.541 21.7 L 130.746 21.7 L 130.746 26.875 L 125.541 26.875 L 125.541 21.7 Z  M 125.541 29.175 L 130.746 29.175 L 130.746 34.35 L 125.541 34.35 L 125.541 29.175 Z  M 125.541 37.225 L 130.746 37.225 L 130.746 42.4 L 125.541 42.4 L 125.541 37.225 Z " fill="rgb(0,0,0)"/><path d=" M 104.143 85.5 L 123.227 73.712 L 104.143 61.925 L 104.143 85.5 Z " fill="rgb(68,68,68)"/><path d=" M 133.059 73.712 L 152.143 85.5 L 152.143 61.925 L 133.059 73.712 Z  M 148.117 78.137 L 140.954 73.712 L 148.117 69.288 L 148.117 78.137 Z " fill="rgb(68,68,68)"/><path d=" M 125.541 63.65 L 130.746 63.65 L 130.746 68.825 L 125.541 68.825 L 125.541 63.65 Z  M 125.541 55.6 L 130.746 55.6 L 130.746 60.775 L 125.541 60.775 L 125.541 55.6 Z  M 125.541 71.7 L 130.746 71.7 L 130.746 76.875 L 125.541 76.875 L 125.541 71.7 Z  M 125.541 79.175 L 130.746 79.175 L 130.746 84.35 L 125.541 84.35 L 125.541 79.175 Z  M 125.541 87.225 L 130.746 87.225 L 130.746 92.4 L 125.541 92.4 L 125.541 87.225 Z " fill="rgb(68,68,68)"/></g><path d=" M 155 1.061 L 155 49.061 L 203 49.061 L 203 1.061 L 155 1.061 Z  M 179.107 17.843 C 183.032 17.849 186.212 21.03 186.217 24.954 C 186.212 28.879 183.032 32.06 179.107 32.065 C 175.182 32.061 172.002 28.88 171.996 24.955 C 172 21.03 175.181 17.849 179.106 17.843 L 179.107 17.843 Z  M 161.4 6.608 L 168.653 6.608 L 168.653 11.301 L 161.4 11.301 L 161.4 6.608 Z  M 196.6 42.661 L 161.4 42.661 L 161.4 25.808 L 165.625 25.808 C 166.068 32.861 171.943 38.465 179.107 38.465 C 186.27 38.465 192.146 32.861 192.588 25.808 L 196.6 25.808 L 196.6 42.661 Z " fill-rule="evenodd" fill="rgb(0,0,0)"/><linearGradient id="_lgradient_0" x1="0.5" y1="0" x2="0.5000000000000014" y2="1.0000000000000004" gradientTransform="matrix(48,0,0,48,155,51)" gradientUnits="userSpaceOnUse"><stop offset="0%" stop-opacity="1" style="stop-color:rgb(138,35,135)"/><stop offset="56.086956521739125%" stop-opacity="1" style="stop-color:rgb(233,64,87)"/><stop offset="100%" stop-opacity="1" style="stop-color:rgb(242,113,33)"/></linearGradient><path d=" M 155 51 L 155 99 L 203 99 L 203 51 L 155 51 Z  M 179.107 67.782 C 183.032 67.788 186.212 70.968 186.217 74.893 C 186.212 78.818 183.032 81.998 179.107 82.004 C 175.182 81.999 172.002 78.819 171.996 74.894 C 172 70.969 175.181 67.788 179.106 67.782 L 179.107 67.782 Z  M 161.4 56.547 L 168.653 56.547 L 168.653 61.24 L 161.4 61.24 L 161.4 56.547 Z  M 196.6 92.6 L 161.4 92.6 L 161.4 75.747 L 165.625 75.747 C 166.068 82.8 171.943 88.404 179.107 88.404 C 186.27 88.404 192.146 82.8 192.588 75.747 L 196.6 75.747 L 196.6 92.6 Z " fill-rule="evenodd" fill="url(#_lgradient_0)"/><path d=" M 280.573 48 C 293.806 48 304.572 38.235 304.572 26.248 C 304.572 14.258 293.806 4.499 280.573 4.499 C 279.693 4.499 278.805 4.545 277.922 4.635 L 277.922 1.121 C 277.922 0.669 277.614 0.258 277.161 0.083 C 276.697 -0.087 276.178 0.009 275.806 0.334 L 267.302 8.055 C 266.818 8.493 266.818 9.193 267.302 9.638 L 275.802 17.377 C 276.164 17.696 276.688 17.795 277.161 17.62 C 277.614 17.443 277.921 17.035 277.921 16.585 L 277.921 12.686 C 278.801 12.54 279.685 12.474 280.572 12.474 C 288.955 12.474 295.778 18.654 295.778 26.248 C 295.778 33.84 288.953 40.025 280.572 40.025 C 272.19 40.025 265.369 33.838 265.369 26.248 C 265.369 25.632 264.816 25.128 264.129 25.128 L 257.813 25.128 C 257.129 25.128 256.572 25.632 256.572 26.248 C 256.573 38.235 267.347 48 280.573 48 Z " fill-rule="evenodd" fill="rgb(0,0,0)"/><path d=" M 280.573 98 C 293.806 98 304.572 88.235 304.572 76.248 C 304.572 64.258 293.806 54.499 280.573 54.499 C 279.693 54.499 278.805 54.545 277.922 54.635 L 277.922 51.121 C 277.922 50.669 277.614 50.258 277.161 50.083 C 276.697 49.913 276.178 50.009 275.806 50.334 L 267.302 58.055 C 266.818 58.493 266.818 59.193 267.302 59.638 L 275.802 67.377 C 276.164 67.696 276.688 67.795 277.161 67.62 C 277.614 67.443 277.921 67.035 277.921 66.585 L 277.921 62.686 C 278.801 62.54 279.685 62.474 280.572 62.474 C 288.955 62.474 295.778 68.654 295.778 76.248 C 295.778 83.84 288.953 90.025 280.572 90.025 C 272.19 90.025 265.369 83.838 265.369 76.248 C 265.369 75.632 264.816 75.128 264.129 75.128 L 257.813 75.128 C 257.129 75.128 256.572 75.632 256.572 76.248 C 256.573 88.235 267.347 98 280.573 98 Z " fill-rule="evenodd" fill="rgb(68,68,68)"/><g><path d=" M 206.429 1 L 206.429 49 L 254.429 49 L 254.429 1 L 206.429 1 Z  M 212.829 7.4 L 246.511 7.4 L 212.829 41.227 L 212.829 7.4 Z  M 247.389 39.827 L 232.029 39.827 L 232.029 33.427 L 247.389 33.427 L 247.389 39.827 Z " fill="rgb(0,0,0)"/><path d=" M 206.429 51 L 206.429 99 L 254.429 99 L 254.429 51 L 206.429 51 Z  M 212.829 57.4 L 246.511 57.4 L 212.829 91.227 L 212.829 57.4 Z  M 247.389 89.827 L 232.029 89.827 L 232.029 83.427 L 247.389 83.427 L 247.389 89.827 Z " fill="rgb(68,68,68)"/><path d=" M 229.429 14.071 L 225.054 14.071 L 225.054 9.571 L 218.804 9.571 L 218.804 14.071 L 214.429 14.071 L 214.429 20.5 L 218.804 20.5 L 218.804 25 L 225.054 25 L 225.054 20.5 L 229.429 20.5 L 229.429 14.071 Z " fill="rgb(0,0,0)"/><path d=" M 229.429 64.071 L 225.054 64.071 L 225.054 59.571 L 218.804 59.571 L 218.804 64.071 L 214.429 64.071 L 214.429 70.5 L 218.804 70.5 L 218.804 75 L 225.054 75 L 225.054 70.5 L 229.429 70.5 L 229.429 64.071 Z " fill="rgb(68,68,68)"/></g><path d=" M 32.482 51.116 L 8.553 75.044 L 32.483 98.973 L 39.27 92.185 L 22.13 75.045 L 39.269 57.904 L 32.482 51.116 Z " fill-rule="evenodd" fill="rgb(68,68,68)"/></g></svg>
