<svg xmlns="http://www.w3.org/2000/svg" viewBox="0 0 48 48"><defs><linearGradient id="a" gradientUnits="userSpaceOnUse" x1="-274.1384" y1="413.2833" x2="-275.1484" y2="412.2633" gradientTransform="matrix(48 0 0 -48 13207 19837)"><stop offset="0" stop-color="#8a2387"/><stop offset=".6368" stop-color="#e94057"/><stop offset="1" stop-color="#f27121"/></linearGradient></defs><path fill="#f4faf8" d="M0 0h48v48H0z"/>
    <path d="M0 0v48h48V0zm24.1016 16.8008c3.8984 0 7.0976 3.1992 7.0976 7.0976C31.1992 27.8008 28 31 24.1016 31 20.1992 31 17 27.8008 17 23.8984c0-3.8984 3.1992-7.0976 7.1016-7.0976zM6.3984 5.5h7.3008v4.6992H6.3984zm35.2032 36.1016H6.3984V24.6992h4.2032c.3984 7.1016 6.2968 12.6992 13.5 12.6992 7.1992 0 13-5.5976 13.5-12.6992h4zm0 0" fill="url(#a)"/></svg>
