<svg width="48px" height="48px" xmlns="http://www.w3.org/2000/svg">
    <defs>
        <linearGradient id="grad1" x1="0%" y1="100%" y2="0%" x2="100%">
            <stop offset="0%" style="stop-color:#f27121;stop-opacity:1" />
            <stop offset="64%" style="stop-color:#e94057;stop-opacity:1" />
            <stop offset="100%" style="stop-color:#8a2387;stop-opacity:1" />
        </linearGradient>
    </defs>
    <path d="M0 0v48h48V0H0zm24.107 16.782a7.12 7.12 0 0 1 7.11 7.111 7.12 7.12 0 0 1-7.11 7.111 7.12 7.12 0 0 1-7.111-7.11 7.12 7.12 0 0 1 7.11-7.112zM6.4 5.547h7.253v4.693H6.4V5.547zM41.6 41.6H6.4V24.747h4.225c.443 7.053 6.318 12.657 13.482 12.657 7.163 0 13.039-5.604 13.481-12.657H41.6V41.6z" fill="url(#grad1)"/>
</svg>
