<?xml version="1.0" encoding="utf-8"?>
<!-- Generator: Adobe Illustrator 23.0.1, SVG Export Plug-In . SVG Version: 6.00 Build 0)  -->
<svg version="1.1" id="Слой_1" xmlns="http://www.w3.org/2000/svg" xmlns:xlink="http://www.w3.org/1999/xlink" x="0px" y="0px"
	 viewBox="0 0 48 48" style="enable-background:new 0 0 48 48;" xml:space="preserve">
<style type="text/css">
	.st0{fill:#F4FAF8;}
	.st1{fill:url(#SVGID_1_);}
</style>
<rect x="0" class="st0" width="48" height="48"/>
<linearGradient id="SVGID_1_" gradientUnits="userSpaceOnUse" x1="-274.1384" y1="413.2833" x2="-275.1484" y2="412.2633" gradientTransform="matrix(48 0 0 -48 13207 19837)">
	<stop  offset="0" style="stop-color:#8A2387"/>
	<stop  offset="0.6368" style="stop-color:#E94057"/>
	<stop  offset="1" style="stop-color:#F27121"/>
</linearGradient>
<path class="st1" d="M0,0v48h48V0H0z M24.1,16.8c3.9,0,7.1,3.2,7.1,7.1c0,3.9-3.2,7.1-7.1,7.1c-3.9,0-7.1-3.2-7.1-7.1
	C17,20,20.2,16.8,24.1,16.8L24.1,16.8z M6.4,5.5h7.3v4.7H6.4V5.5z M41.6,41.6H6.4V24.7h4.2c0.4,7.1,6.3,12.7,13.5,12.7
	c7.2,0,13-5.6,13.5-12.7h4V41.6z"/>
</svg>
