<svg xmlns="http://www.w3.org/2000/svg" viewBox="0 0 48 48"><path d="M24 48c13.2344 0 24-9.7656 24-21.754 0-11.9882-10.7656-21.75-24-21.75-.879 0-1.7695.047-2.6523.1368V1.1172c0-.4492-.3086-.8594-.7579-1.0352a1.349 1.349 0 0 0-1.3554.25l-8.504 7.7227c-.4843.4375-.4843 1.1367 0 1.582l8.5 7.7383c.3594.3203.8829.418 1.3594.2422.4493-.1758.7579-.582.7579-1.0313v-3.9023c.8789-.1445 1.7656-.211 2.6523-.211 8.3828 0 15.207 6.1797 15.207 13.7735 0 7.5937-6.8242 13.7773-15.207 13.7773S8.7969 33.8398 8.7969 26.2461c0-.6133-.5547-1.1172-1.2422-1.1172H1.2383C.5547 25.129 0 25.633 0 26.2461 0 38.2344 10.7734 48 24 48zm0 0" fill-rule="evenodd"/></svg>