<svg width="256" height="48" xmlns="http://www.w3.org/2000/svg">
    <g>
        <path d="M8.395 8.395h30.996v30.996H8.395z"/>
        <path d="M35.946 0v5.166h6.888v6.673H48V0zM5.166 5.166h6.673V0H0v11.839h5.166zm37.668 37.668h-6.888V48H48V35.946h-5.166zM5.166 35.946H0V48h11.839v-5.166H5.166z"/>
    </g>

    <g>
        <path d="M52 0v48h48V0H0zm6.4 6.4h33.682L58.4 40.227V6.4zm34.56 32.427H77.6v-6.4h15.36v6.4z"/>
        <path d="M76 13.071h-4.375v-4.5h-6.25v4.5H61V19.5h4.375V24h6.25v-4.5H76z"/>
    </g>

    <g>
        <defs>
            <linearGradient id="grad" x1="0%" y1="100%" x2="100%" y2="0%">
                <stop offset="0%" style="stop-color:rgb(242, 113, 33);stop-opacity:1" />
                <stop offset="50%" style="stop-color:rgb(233, 64, 87);stop-opacity:1" />
                <stop offset="100%" style="stop-color:rgb(138, 35, 135);stop-opacity:1" />
            </linearGradient>
        </defs>
        <path d="M104 0v48h48V0H0zm24.107 16.782a7.12 7.12 0 0 1 7.11 7.111 7.12 7.12 0 0 1-7.11 7.111 7.12 7.12 0 0 1-7.111-7.11 7.12 7.12 0 0 1 7.11-7.112zM111.4 5.547h7.253v4.693H110.4V5.547zM41.6 41.6h68.8V25.747h4.225c.443 7.053 6.318 12.657 13.482 12.657 7.163 0 13.039-5.604 13.481-12.657h4.012V41.6z" fill-rule="evenodd" fill="url(#grad)"/>
    </g>
    <g>
        <path d="M180 48c13.234 0 24-9.765 24-21.753 0-11.99-10.766-21.749-24-21.749-.88 0-1.768.046-2.651.136V1.119c0-.452-.308-.863-.761-1.038a2.353 1.353 0 0 0-1.355.251l-8.504 7.722c-.484.438-.484 1.138 0 1.583l8.5 7.739a1.35 1.35 0 0 0 1.359.243c.453-.177.76-.585.76-1.035v-3.899c.88-.146 1.764-.212 2.651-.212 8.384 0 15.207 6.18 15.207 13.774 0 7.593-6.825 13.778-15.207 13.778-8.382 0-15.203-6.187-15.203-13.778 0-.616-.553-1.12-1.24-1.12h-6.316c-.684 0-1.241.504-1.241 1.12C154 42.235 170.774 48 176 48z" fill-rule="evenodd"/>
    </g>

    <g>
        <path d="M208 35.9l19.084-11.788L208 12.325zM236.916 24.112L256 35.9V12.325l-19.084 11.787zm15.058 4.425l-7.163-4.425 7.163-4.424v8.849zM229.398 14.05h5.205v5.175h-5.205zm0-8.05h5.205v5.175h-5.205zm0 16.1h5.205v5.175h-5.205zm0 7.475h5.205v5.175h-5.205zm0 8.05h5.205V42.8h-5.205z"/>
    </g>
</svg>
