<svg xmlns="http://www.w3.org/2000/svg" viewBox="0 0 288 48">
    <linearGradient id="logo-gradient" x1="0" y1="0" x2="1" y2="1">
        <stop stop-color="#8a2387" offset="0%"></stop>
        <stop stop-color="#e94057" offset="64%"></stop>
        <stop stop-color="#f27121" offset="100%"></stop>
    </linearGradient>
    <g>
        <path d="M8.4,8.4h31v31h-31V8.4z"/>
        <path d="M35.9,0v5.2h6.9v6.7H48V0H35.9z M5.2,5.2h6.7V0H0v11.8h5.2V5.2z M42.8,42.8h-6.9V48H48V35.9h-5.2V42.8zM5.2,35.9H0V48h11.8v-5.2H5.2V35.9z"/>
    </g>
    <g>
        <path d="M48,0.1v48h48v-48H48z M54.4,6.5h33.7L54.4,40.3V6.5z M89,38.9H73.6v-6.4H89C89,32.5,89,38.9,89,38.9z"/>
        <path d="M72,13.1h-4.4V8.6h-6.3v4.5H57v6.4h4.4v4.5h6.3v-4.5H72V13.1z"/>
    </g>
    <path d="M96,0.1v48h48v-48H96z M120.1,16.8c3.9,0,7.1,3.2,7.1,7.1c0,3.9-3.2,7.1-7.1,7.1c-3.9,0-7.1-3.2-7.1-7.1
        C113,20,116.2,16.8,120.1,16.8L120.1,16.8z M102.4,5.6h7.3v4.7h-7.3V5.6z M137.6,41.7h-35.2V24.8h4.2c0.4,7.1,6.3,12.7,13.5,12.7
        c7.2,0,13-5.6,13.5-12.7h4V41.7z"/>
    <path d="M144,0.1v48h48v-48H144z M168.1,16.8c3.9,0,7.1,3.2,7.1,7.1c0,3.9-3.2,7.1-7.1,7.1c-3.9,0-7.1-3.2-7.1-7.1
        C161,20,164.2,16.8,168.1,16.8L168.1,16.8z M150.4,5.6h7.3v4.7h-7.3V5.6z M185.6,41.7h-35.2V24.8h4.2c0.4,7.1,6.3,12.7,13.5,12.7
        c7.2,0,13-5.6,13.5-12.7h4V41.7z" fill="url(#logo-gradient)"/>
    <path d="M216,48.1c13.2,0,24-9.8,24-21.8c0-12-10.8-21.7-24-21.7c-0.9,0-1.8,0-2.7,0.1V1.2c0-0.5-0.3-0.9-0.8-1
        c-0.5-0.2-1-0.1-1.4,0.3l-8.5,7.7c-0.5,0.4-0.5,1.1,0,1.6l8.5,7.7c0.4,0.3,0.9,0.4,1.4,0.2c0.5-0.2,0.8-0.6,0.8-1v-3.9
        c0.9-0.1,1.8-0.2,2.7-0.2c8.4,0,15.2,6.2,15.2,13.8c0,7.6-6.8,13.8-15.2,13.8s-15.2-6.2-15.2-13.8c0-0.6-0.6-1.1-1.2-1.1h-6.3
        c-0.7,0-1.2,0.5-1.2,1.1C192,38.3,202.8,48.1,216,48.1z"/>
    <g>
        <path d="M240,35.6l19.1-11.8L240,12V35.6z"/>
        <path d="M268.9,23.8L288,35.6V12L268.9,23.8z M284,28.2l-7.2-4.4l7.2-4.4V28.2z"/>
        <path d="M261.4,13.7h5.2v5.2h-5.2V13.7z M261.4,5.7h5.2v5.2h-5.2V5.7z M261.4,21.8h5.2v5.2h-5.2V21.8z M261.4,29.2h5.2v5.2h-5.2V29.2z M261.4,37.3h5.2v5.2h-5.2V37.3z"/>
    </g>
</svg>
